<svg width="348" height="110" viewBox="0 0 348 110" fill="none" xmlns="http://www.w3.org/2000/svg">
<rect width="348" height="110" rx="25" fill="white"/>
<path d="M311.043 33.9577L323.96 21.041M323.96 21.041H311.043M323.96 21.041V33.9577" stroke="#2C7BB3" stroke-width="4" stroke-linecap="round" stroke-linejoin="round"/>
<path d="M115.963 72H112.588L118.733 54.5455H122.636L128.79 72H125.415L120.753 58.125H120.616L115.963 72ZM116.074 65.1562H125.278V67.696H116.074V65.1562ZM131.089 72V54.5455H134.174V61.0739H134.302C134.461 60.7557 134.685 60.4176 134.975 60.0597C135.265 59.696 135.657 59.3864 136.151 59.1307C136.646 58.8693 137.276 58.7386 138.043 58.7386C139.055 58.7386 139.967 58.9972 140.779 59.5142C141.597 60.0256 142.245 60.7841 142.722 61.7898C143.205 62.7898 143.447 64.017 143.447 65.4716C143.447 66.9091 143.211 68.1307 142.739 69.1364C142.268 70.142 141.626 70.9091 140.813 71.4375C140.001 71.9659 139.08 72.2301 138.052 72.2301C137.302 72.2301 136.68 72.1051 136.185 71.8551C135.691 71.6051 135.293 71.304 134.992 70.9517C134.697 70.5937 134.467 70.2557 134.302 69.9375H134.123V72H131.089ZM134.114 65.4545C134.114 66.3011 134.234 67.0426 134.472 67.679C134.717 68.3153 135.066 68.8125 135.521 69.1705C135.981 69.5227 136.538 69.6989 137.191 69.6989C137.873 69.6989 138.444 69.517 138.904 69.1534C139.364 68.7841 139.711 68.2812 139.944 67.6449C140.183 67.0028 140.302 66.2727 140.302 65.4545C140.302 64.642 140.185 63.9205 139.952 63.2898C139.719 62.6591 139.373 62.1648 138.913 61.8068C138.452 61.4489 137.879 61.2699 137.191 61.2699C136.532 61.2699 135.972 61.4432 135.512 61.7898C135.052 62.1364 134.702 62.6222 134.464 63.2472C134.231 63.8722 134.114 64.608 134.114 65.4545ZM151.78 72.2557C150.501 72.2557 149.393 71.9744 148.456 71.4119C147.518 70.8494 146.791 70.0625 146.274 69.0511C145.763 68.0398 145.507 66.858 145.507 65.5057C145.507 64.1534 145.763 62.9687 146.274 61.9517C146.791 60.9347 147.518 60.1449 148.456 59.5824C149.393 59.0199 150.501 58.7386 151.78 58.7386C153.058 58.7386 154.166 59.0199 155.104 59.5824C156.041 60.1449 156.766 60.9347 157.277 61.9517C157.794 62.9687 158.053 64.1534 158.053 65.5057C158.053 66.858 157.794 68.0398 157.277 69.0511C156.766 70.0625 156.041 70.8494 155.104 71.4119C154.166 71.9744 153.058 72.2557 151.78 72.2557ZM151.797 69.7841C152.49 69.7841 153.07 69.5937 153.536 69.2131C154.001 68.8267 154.348 68.3097 154.575 67.6619C154.808 67.0142 154.925 66.2926 154.925 65.4972C154.925 64.696 154.808 63.9716 154.575 63.3239C154.348 62.6705 154.001 62.1506 153.536 61.7642C153.07 61.3778 152.49 61.1847 151.797 61.1847C151.087 61.1847 150.496 61.3778 150.024 61.7642C149.558 62.1506 149.209 62.6705 148.976 63.3239C148.749 63.9716 148.635 64.696 148.635 65.4972C148.635 66.2926 148.749 67.0142 148.976 67.6619C149.209 68.3097 149.558 68.8267 150.024 69.2131C150.496 69.5937 151.087 69.7841 151.797 69.7841ZM169.015 66.4943V58.9091H172.1V72H169.109V69.6733H168.972C168.677 70.4062 168.191 71.0057 167.515 71.4716C166.844 71.9375 166.018 72.1705 165.035 72.1705C164.177 72.1705 163.418 71.9801 162.759 71.5994C162.106 71.2131 161.594 70.6534 161.225 69.9205C160.856 69.1818 160.671 68.2898 160.671 67.2443V58.9091H163.756V66.767C163.756 67.5966 163.984 68.2557 164.438 68.7443C164.893 69.233 165.489 69.4773 166.228 69.4773C166.683 69.4773 167.123 69.3665 167.549 69.1449C167.975 68.9233 168.325 68.5938 168.597 68.1562C168.876 67.7131 169.015 67.1591 169.015 66.4943ZM181.81 58.9091V61.2955H174.284V58.9091H181.81ZM176.142 55.7727H179.227V68.0625C179.227 68.4773 179.29 68.7955 179.415 69.017C179.545 69.233 179.716 69.3807 179.926 69.4602C180.136 69.5398 180.369 69.5795 180.625 69.5795C180.818 69.5795 180.994 69.5653 181.153 69.5369C181.318 69.5085 181.443 69.483 181.528 69.4602L182.048 71.8722C181.884 71.929 181.648 71.9915 181.341 72.0597C181.04 72.1278 180.67 72.1676 180.233 72.179C179.46 72.2017 178.764 72.0852 178.145 71.8295C177.526 71.5682 177.034 71.1648 176.67 70.6193C176.313 70.0739 176.136 69.392 176.142 68.5739V55.7727ZM198.687 66.4943V58.9091H201.772V72H198.781V69.6733H198.644C198.349 70.4062 197.863 71.0057 197.187 71.4716C196.516 71.9375 195.69 72.1705 194.707 72.1705C193.849 72.1705 193.09 71.9801 192.431 71.5994C191.778 71.2131 191.266 70.6534 190.897 69.9205C190.528 69.1818 190.343 68.2898 190.343 67.2443V58.9091H193.428V66.767C193.428 67.5966 193.656 68.2557 194.11 68.7443C194.565 69.233 195.161 69.4773 195.9 69.4773C196.354 69.4773 196.795 69.3665 197.221 69.1449C197.647 68.9233 197.996 68.5938 198.269 68.1562C198.548 67.7131 198.687 67.1591 198.687 66.4943ZM215.291 62.3693L212.479 62.6761C212.399 62.392 212.26 62.125 212.061 61.875C211.868 61.625 211.607 61.4233 211.277 61.2699C210.947 61.1165 210.544 61.0398 210.067 61.0398C209.425 61.0398 208.885 61.179 208.447 61.4574C208.016 61.7358 207.803 62.0966 207.808 62.5398C207.803 62.9205 207.942 63.2301 208.226 63.4688C208.516 63.7074 208.993 63.9034 209.658 64.0568L211.891 64.5341C213.129 64.8011 214.05 65.2244 214.652 65.804C215.26 66.3835 215.567 67.142 215.572 68.0795C215.567 68.9034 215.325 69.6307 214.848 70.2614C214.376 70.8864 213.72 71.375 212.879 71.7273C212.038 72.0795 211.072 72.2557 209.982 72.2557C208.379 72.2557 207.089 71.9205 206.112 71.25C205.135 70.5739 204.553 69.6335 204.365 68.429L207.374 68.1392C207.51 68.7301 207.8 69.1761 208.243 69.4773C208.686 69.7784 209.263 69.929 209.973 69.929C210.706 69.929 211.294 69.7784 211.737 69.4773C212.186 69.1761 212.411 68.804 212.411 68.3608C212.411 67.9858 212.266 67.6761 211.976 67.4318C211.692 67.1875 211.249 67 210.646 66.8693L208.413 66.4006C207.158 66.1392 206.229 65.6989 205.626 65.0795C205.024 64.4545 204.726 63.6648 204.732 62.7102C204.726 61.9034 204.945 61.2045 205.388 60.6136C205.837 60.017 206.459 59.5568 207.254 59.233C208.055 58.9034 208.979 58.7386 210.024 58.7386C211.558 58.7386 212.766 59.0653 213.646 59.7188C214.533 60.3722 215.081 61.2557 215.291 62.3693Z" fill="#2D7CB4"/>
<rect x="58" y="28" width="8.76256" height="58.123" rx="4.38128" fill="#2C7BB0"/>
<rect width="8.58038" height="59.3833" rx="4.29019" transform="matrix(0.58522 -0.810874 0.827889 0.560892 35.8203 44.1035)" fill="#2C7BB0"/>
<rect width="8.57042" height="59.4506" rx="4.28521" transform="matrix(0.552566 0.833469 -0.849007 0.528381 84.4766 37.9492)" fill="#2C7BB0"/>
</svg>
