<svg width="348" height="117" viewBox="0 0 348 117" fill="none" xmlns="http://www.w3.org/2000/svg">
<rect width="348" height="117" rx="25" fill="#181818"/>
<rect x="27.5" y="19.5" width="125" height="28" rx="14" stroke="white"/>
<path d="M61.321 39V28.0909H65.0071C65.8594 28.0909 66.5589 28.2365 67.1058 28.5277C67.6527 28.8153 68.0575 29.2113 68.3203 29.7156C68.5831 30.2198 68.7145 30.7933 68.7145 31.4361C68.7145 32.0788 68.5831 32.6488 68.3203 33.146C68.0575 33.6431 67.6545 34.0337 67.1112 34.3178C66.5678 34.5984 65.8736 34.7386 65.0284 34.7386H62.0455V33.5455H64.9858C65.5682 33.5455 66.0369 33.4602 66.392 33.2898C66.7507 33.1193 67.0099 32.8778 67.1697 32.5653C67.3331 32.2493 67.4148 31.8729 67.4148 31.4361C67.4148 30.9993 67.3331 30.6175 67.1697 30.2908C67.0064 29.9641 66.7454 29.712 66.3867 29.5344C66.0281 29.3533 65.554 29.2628 64.9645 29.2628H62.642V39H61.321ZM66.456 34.0994L69.1406 39H67.6065L64.9645 34.0994H66.456ZM74.0878 39.1705C73.2994 39.1705 72.6194 38.9964 72.0477 38.6484C71.4795 38.2969 71.0409 37.8068 70.732 37.1783C70.4266 36.5462 70.2739 35.8111 70.2739 34.973C70.2739 34.1349 70.4266 33.3963 70.732 32.7571C71.0409 32.1143 71.4706 31.6136 72.021 31.255C72.575 30.8928 73.2213 30.7116 73.96 30.7116C74.3861 30.7116 74.8069 30.7827 75.2224 30.9247C75.6379 31.0668 76.0161 31.2976 76.357 31.6172C76.6979 31.9332 76.9695 32.3523 77.172 32.8743C77.3744 33.3963 77.4756 34.0391 77.4756 34.8026V35.3352H71.1688V34.2486H76.1972C76.1972 33.7869 76.1048 33.375 75.9202 33.0128C75.7391 32.6506 75.4798 32.3647 75.1425 32.1552C74.8087 31.9457 74.4145 31.8409 73.96 31.8409C73.4593 31.8409 73.026 31.9652 72.6602 32.2138C72.298 32.4588 72.0193 32.7784 71.824 33.1726C71.6286 33.5668 71.531 33.9893 71.531 34.4403V35.1648C71.531 35.7827 71.6375 36.3065 71.8506 36.7362C72.0672 37.1623 72.3673 37.4872 72.7508 37.7109C73.1343 37.9311 73.58 38.0412 74.0878 38.0412C74.4181 38.0412 74.7164 37.995 74.9827 37.9027C75.2526 37.8068 75.4852 37.6648 75.6805 37.4766C75.8758 37.2848 76.0267 37.0469 76.1333 36.7628L77.3477 37.1037C77.2199 37.5156 77.0051 37.8778 76.7032 38.1903C76.4014 38.4993 76.0285 38.7408 75.5846 38.9148C75.1407 39.0852 74.6418 39.1705 74.0878 39.1705ZM85.8292 30.8182L82.8036 39H81.5252L78.4996 30.8182H79.8633L82.1218 37.3381H82.207L84.4656 30.8182H85.8292ZM87.4885 39V30.8182H88.7456V39H87.4885ZM88.1277 29.4545C87.8826 29.4545 87.6713 29.3711 87.4938 29.2042C87.3198 29.0373 87.2328 28.8366 87.2328 28.6023C87.2328 28.3679 87.3198 28.1673 87.4938 28.0004C87.6713 27.8335 87.8826 27.75 88.1277 27.75C88.3727 27.75 88.5822 27.8335 88.7562 28.0004C88.9338 28.1673 89.0225 28.3679 89.0225 28.6023C89.0225 28.8366 88.9338 29.0373 88.7562 29.2042C88.5822 29.3711 88.3727 29.4545 88.1277 29.4545ZM94.4784 39.1705C93.6901 39.1705 93.01 38.9964 92.4383 38.6484C91.8701 38.2969 91.4316 37.8068 91.1226 37.1783C90.8172 36.5462 90.6645 35.8111 90.6645 34.973C90.6645 34.1349 90.8172 33.3963 91.1226 32.7571C91.4316 32.1143 91.8612 31.6136 92.4117 31.255C92.9656 30.8928 93.6119 30.7116 94.3506 30.7116C94.7767 30.7116 95.1975 30.7827 95.613 30.9247C96.0285 31.0668 96.4067 31.2976 96.7476 31.6172C97.0885 31.9332 97.3602 32.3523 97.5626 32.8743C97.765 33.3963 97.8662 34.0391 97.8662 34.8026V35.3352H91.5594V34.2486H96.5878C96.5878 33.7869 96.4955 33.375 96.3108 33.0128C96.1297 32.6506 95.8705 32.3647 95.5331 32.1552C95.1993 31.9457 94.8051 31.8409 94.3506 31.8409C93.8499 31.8409 93.4166 31.9652 93.0509 32.2138C92.6887 32.4588 92.4099 32.7784 92.2146 33.1726C92.0193 33.5668 91.9216 33.9893 91.9216 34.4403V35.1648C91.9216 35.7827 92.0281 36.3065 92.2412 36.7362C92.4578 37.1623 92.7579 37.4872 93.1414 37.7109C93.5249 37.9311 93.9706 38.0412 94.4784 38.0412C94.8087 38.0412 95.107 37.995 95.3733 37.9027C95.6432 37.8068 95.8758 37.6648 96.0711 37.4766C96.2664 37.2848 96.4173 37.0469 96.5239 36.7628L97.7384 37.1037C97.6105 37.5156 97.3957 37.8778 97.0938 38.1903C96.792 38.4993 96.4191 38.7408 95.9752 38.9148C95.5313 39.0852 95.0324 39.1705 94.4784 39.1705ZM101.632 39L99.1393 30.8182H100.46L102.229 37.0824H102.314L104.061 30.8182H105.403L107.129 37.0611H107.215L108.983 30.8182H110.304L107.811 39H106.575L104.786 32.7145H104.658L102.868 39H101.632ZM117.761 32.6506L116.632 32.9702C116.561 32.782 116.456 32.5991 116.318 32.4215C116.183 32.2404 115.998 32.0913 115.764 31.9741C115.53 31.8569 115.229 31.7983 114.864 31.7983C114.363 31.7983 113.946 31.9137 113.612 32.1445C113.282 32.3718 113.117 32.6612 113.117 33.0128C113.117 33.3253 113.23 33.5721 113.457 33.7532C113.685 33.9343 114.04 34.0852 114.523 34.206L115.737 34.5043C116.469 34.6818 117.014 34.9535 117.373 35.3192C117.731 35.6815 117.911 36.1484 117.911 36.7202C117.911 37.1889 117.776 37.608 117.506 37.9773C117.239 38.3466 116.867 38.6378 116.387 38.8509C115.908 39.0639 115.35 39.1705 114.715 39.1705C113.88 39.1705 113.189 38.9893 112.642 38.6271C112.096 38.2649 111.749 37.7358 111.604 37.0398L112.797 36.7415C112.911 37.1818 113.125 37.5121 113.441 37.7322C113.761 37.9524 114.178 38.0625 114.693 38.0625C115.279 38.0625 115.744 37.9382 116.089 37.6896C116.437 37.4375 116.611 37.1357 116.611 36.7841C116.611 36.5 116.511 36.2621 116.313 36.0703C116.114 35.875 115.808 35.7294 115.396 35.6335L114.033 35.3139C113.283 35.1364 112.733 34.8612 112.381 34.4883C112.033 34.1119 111.859 33.6413 111.859 33.0767C111.859 32.6151 111.989 32.2067 112.248 31.8516C112.511 31.4964 112.868 31.2177 113.319 31.0153C113.774 30.8129 114.288 30.7116 114.864 30.7116C115.673 30.7116 116.309 30.8892 116.771 31.2443C117.236 31.5994 117.566 32.0682 117.761 32.6506Z" fill="white"/>
<path d="M45.358 83H43.5114L48.8523 68.4545H50.6705L56.0114 83H54.1648L49.8182 70.7557H49.7045L45.358 83ZM46.0398 77.3182H53.483V78.8807H46.0398V77.3182ZM63.6747 83V72.0909H65.294V73.7386H65.4077C65.6065 73.1989 65.9664 72.7609 66.4872 72.4247C67.008 72.0885 67.5952 71.9205 68.2486 71.9205C68.3717 71.9205 68.5256 71.9228 68.7102 71.9276C68.8949 71.9323 69.0346 71.9394 69.1293 71.9489V73.6534C69.0724 73.6392 68.9422 73.6179 68.7386 73.5895C68.5398 73.5563 68.3291 73.5398 68.1065 73.5398C67.5762 73.5398 67.1027 73.651 66.6861 73.8736C66.2741 74.0914 65.9474 74.3944 65.706 74.7827C65.4692 75.1662 65.3509 75.6042 65.3509 76.0966V83H63.6747ZM75.358 83.2273C74.3068 83.2273 73.4001 82.9953 72.6378 82.5312C71.8802 82.0625 71.2955 81.4091 70.8835 80.571C70.4763 79.7282 70.2727 78.7481 70.2727 77.6307C70.2727 76.5133 70.4763 75.5284 70.8835 74.6761C71.2955 73.8191 71.8684 73.1515 72.6023 72.6733C73.3409 72.1903 74.2027 71.9489 75.1875 71.9489C75.7557 71.9489 76.3168 72.0436 76.8707 72.233C77.4247 72.4223 77.929 72.7301 78.3835 73.1562C78.8381 73.5777 79.2003 74.1364 79.4702 74.8324C79.7401 75.5284 79.875 76.3854 79.875 77.4034V78.1136H71.4659V76.6648H78.1705C78.1705 76.0492 78.0473 75.5 77.8011 75.017C77.5597 74.5341 77.214 74.1529 76.7642 73.8736C76.3191 73.5942 75.7936 73.4545 75.1875 73.4545C74.5199 73.4545 73.9422 73.6203 73.4545 73.9517C72.9716 74.2784 72.5999 74.7045 72.3395 75.2301C72.0791 75.7557 71.9489 76.3191 71.9489 76.9205V77.8864C71.9489 78.7102 72.0909 79.4086 72.375 79.9815C72.6638 80.5497 73.0639 80.983 73.5753 81.2812C74.0866 81.5748 74.6809 81.7216 75.358 81.7216C75.7983 81.7216 76.196 81.66 76.5511 81.5369C76.911 81.4091 77.2211 81.2197 77.4815 80.9688C77.742 80.7131 77.9432 80.3958 78.0852 80.017L79.7045 80.4716C79.5341 81.0208 79.2476 81.5038 78.8452 81.9205C78.4427 82.3324 77.9455 82.6544 77.3537 82.8864C76.7618 83.1136 76.0966 83.2273 75.358 83.2273ZM85.6349 83.2557C84.9437 83.2557 84.3163 83.1255 83.7528 82.8651C83.1894 82.5999 82.742 82.2188 82.4105 81.7216C82.0791 81.2197 81.9134 80.6136 81.9134 79.9034C81.9134 79.2784 82.0365 78.7718 82.2827 78.3835C82.5289 77.9905 82.858 77.6828 83.2699 77.4602C83.6818 77.2377 84.1364 77.072 84.6335 76.9631C85.1354 76.8494 85.6397 76.7595 86.1463 76.6932C86.8092 76.608 87.3466 76.544 87.7585 76.5014C88.1752 76.4541 88.4782 76.3759 88.6676 76.267C88.8617 76.1581 88.9588 75.9687 88.9588 75.6989V75.642C88.9588 74.9413 88.767 74.3968 88.3835 74.0085C88.0047 73.6203 87.4295 73.4261 86.6577 73.4261C85.8575 73.4261 85.2301 73.6013 84.7756 73.9517C84.321 74.3021 84.0014 74.6761 83.8168 75.0739L82.2259 74.5057C82.5099 73.8428 82.8887 73.3267 83.3622 72.9574C83.8404 72.5833 84.3613 72.3229 84.9247 72.1761C85.4929 72.0246 86.0516 71.9489 86.6009 71.9489C86.9512 71.9489 87.3537 71.9915 87.8082 72.0767C88.2675 72.1572 88.7102 72.3253 89.1364 72.581C89.5672 72.8366 89.9247 73.2225 90.2088 73.7386C90.4929 74.2547 90.6349 74.946 90.6349 75.8125V83H88.9588V81.5227H88.8736C88.7599 81.7595 88.5705 82.0128 88.3054 82.2827C88.0402 82.5526 87.6875 82.7822 87.2472 82.9716C86.8068 83.161 86.2694 83.2557 85.6349 83.2557ZM85.8906 81.75C86.5535 81.75 87.1122 81.6198 87.5668 81.3594C88.026 81.099 88.3717 80.7628 88.6037 80.3509C88.8404 79.9389 88.9588 79.5057 88.9588 79.0511V77.517C88.8878 77.6023 88.7315 77.6804 88.4901 77.7514C88.2533 77.8177 87.9787 77.8769 87.6662 77.929C87.3584 77.9763 87.0578 78.0189 86.7642 78.0568C86.4754 78.09 86.241 78.1184 86.0611 78.142C85.6255 78.1989 85.2183 78.2912 84.8395 78.419C84.4654 78.5421 84.1624 78.7292 83.9304 78.9801C83.7031 79.2263 83.5895 79.5625 83.5895 79.9886C83.5895 80.571 83.8049 81.0114 84.2358 81.3097C84.6714 81.6032 85.223 81.75 85.8906 81.75ZM95.3704 68.4545V83H93.6942V68.4545H95.3704ZM249.88 72.0909V73.5114H244V72.0909H249.88ZM245.761 83V70.5852C245.761 69.9602 245.908 69.4394 246.201 69.0227C246.495 68.6061 246.876 68.2936 247.345 68.0852C247.814 67.8769 248.308 67.7727 248.829 67.7727C249.241 67.7727 249.577 67.8059 249.838 67.8722C250.098 67.9384 250.292 68 250.42 68.0568L249.937 69.5057C249.852 69.4773 249.734 69.4418 249.582 69.3991C249.435 69.3565 249.241 69.3352 249 69.3352C248.446 69.3352 248.046 69.4749 247.799 69.7543C247.558 70.0336 247.437 70.4432 247.437 70.983V83H245.761ZM256.212 83.2273C255.227 83.2273 254.363 82.9929 253.62 82.5241C252.881 82.0554 252.303 81.3996 251.887 80.5568C251.475 79.714 251.269 78.7292 251.269 77.6023C251.269 76.4659 251.475 75.474 251.887 74.6264C252.303 73.7789 252.881 73.1207 253.62 72.652C254.363 72.1832 255.227 71.9489 256.212 71.9489C257.197 71.9489 258.059 72.1832 258.797 72.652C259.541 73.1207 260.118 73.7789 260.53 74.6264C260.947 75.474 261.155 76.4659 261.155 77.6023C261.155 78.7292 260.947 79.714 260.53 80.5568C260.118 81.3996 259.541 82.0554 258.797 82.5241C258.059 82.9929 257.197 83.2273 256.212 83.2273ZM256.212 81.7216C256.96 81.7216 257.576 81.5298 258.059 81.1463C258.542 80.7628 258.899 80.2585 259.131 79.6335C259.363 79.0085 259.479 78.3314 259.479 77.6023C259.479 76.8731 259.363 76.1937 259.131 75.5639C258.899 74.9342 258.542 74.4252 258.059 74.0369C257.576 73.6487 256.96 73.4545 256.212 73.4545C255.464 73.4545 254.848 73.6487 254.365 74.0369C253.882 74.4252 253.525 74.9342 253.293 75.5639C253.061 76.1937 252.945 76.8731 252.945 77.6023C252.945 78.3314 253.061 79.0085 253.293 79.6335C253.525 80.2585 253.882 80.7628 254.365 81.1463C254.848 81.5298 255.464 81.7216 256.212 81.7216ZM263.714 83V72.0909H265.333V73.7386H265.447C265.646 73.1989 266.005 72.7609 266.526 72.4247C267.047 72.0885 267.634 71.9205 268.288 71.9205C268.411 71.9205 268.565 71.9228 268.749 71.9276C268.934 71.9323 269.074 71.9394 269.168 71.9489V73.6534C269.112 73.6392 268.981 73.6179 268.778 73.5895C268.579 73.5563 268.368 73.5398 268.146 73.5398C267.615 73.5398 267.142 73.651 266.725 73.8736C266.313 74.0914 265.987 74.3944 265.745 74.7827C265.508 75.1662 265.39 75.6042 265.39 76.0966V83H263.714ZM276.78 83V72.0909H278.4V73.7955H278.542C278.769 73.2131 279.136 72.7609 279.642 72.4389C280.149 72.1122 280.757 71.9489 281.468 71.9489C282.187 71.9489 282.786 72.1122 283.265 72.4389C283.748 72.7609 284.124 73.2131 284.394 73.7955H284.507C284.787 73.232 285.206 72.7846 285.765 72.4531C286.323 72.117 286.993 71.9489 287.775 71.9489C288.75 71.9489 289.548 72.2543 290.168 72.8651C290.788 73.4711 291.098 74.4157 291.098 75.6989V83H289.422V75.6989C289.422 74.8939 289.202 74.3187 288.762 73.973C288.321 73.6274 287.803 73.4545 287.206 73.4545C286.439 73.4545 285.845 73.6866 285.424 74.1506C285.002 74.6098 284.792 75.1922 284.792 75.8977V83H283.087V75.5284C283.087 74.9081 282.886 74.4086 282.483 74.0298C282.081 73.6463 281.562 73.4545 280.928 73.4545C280.492 73.4545 280.085 73.5705 279.706 73.8026C279.332 74.0346 279.029 74.3565 278.797 74.7685C278.57 75.1757 278.456 75.6468 278.456 76.1818V83H276.78ZM298.737 83.2273C297.686 83.2273 296.779 82.9953 296.017 82.5312C295.259 82.0625 294.674 81.4091 294.262 80.571C293.855 79.7282 293.652 78.7481 293.652 77.6307C293.652 76.5133 293.855 75.5284 294.262 74.6761C294.674 73.8191 295.247 73.1515 295.981 72.6733C296.72 72.1903 297.582 71.9489 298.566 71.9489C299.135 71.9489 299.696 72.0436 300.25 72.233C300.804 72.4223 301.308 72.7301 301.762 73.1562C302.217 73.5777 302.579 74.1364 302.849 74.8324C303.119 75.5284 303.254 76.3854 303.254 77.4034V78.1136H294.845V76.6648H301.549C301.549 76.0492 301.426 75.5 301.18 75.017C300.939 74.5341 300.593 74.1529 300.143 73.8736C299.698 73.5942 299.172 73.4545 298.566 73.4545C297.899 73.4545 297.321 73.6203 296.833 73.9517C296.35 74.2784 295.979 74.7045 295.718 75.2301C295.458 75.7557 295.328 76.3191 295.328 76.9205V77.8864C295.328 78.7102 295.47 79.4086 295.754 79.9815C296.043 80.5497 296.443 80.983 296.954 81.2812C297.466 81.5748 298.06 81.7216 298.737 81.7216C299.177 81.7216 299.575 81.66 299.93 81.5369C300.29 81.4091 300.6 81.2197 300.86 80.9688C301.121 80.7131 301.322 80.3958 301.464 80.017L303.083 80.4716C302.913 81.0208 302.627 81.5038 302.224 81.9205C301.822 82.3324 301.324 82.6544 300.733 82.8864C300.141 83.1136 299.475 83.2273 298.737 83.2273Z" fill="white"/>
<path d="M108.469 87.3182C107.659 87.3182 106.963 87.214 106.381 87.0057C105.798 86.8021 105.313 86.5322 104.925 86.196C104.541 85.8646 104.236 85.5095 104.009 85.1307L105.344 84.1932C105.495 84.392 105.687 84.6193 105.919 84.875C106.151 85.1354 106.468 85.3603 106.871 85.5497C107.278 85.7438 107.811 85.8409 108.469 85.8409C109.349 85.8409 110.076 85.6278 110.649 85.2017C111.222 84.7756 111.509 84.108 111.509 83.1989V80.983H111.366C111.243 81.1818 111.068 81.428 110.841 81.7216C110.618 82.0104 110.296 82.2685 109.875 82.4957C109.458 82.7183 108.895 82.8295 108.185 82.8295C107.304 82.8295 106.513 82.6212 105.812 82.2045C105.116 81.7879 104.565 81.1818 104.158 80.3864C103.755 79.5909 103.554 78.625 103.554 77.4886C103.554 76.3712 103.75 75.3982 104.143 74.5696C104.536 73.7363 105.083 73.0923 105.784 72.6378C106.485 72.1785 107.295 71.9489 108.213 71.9489C108.923 71.9489 109.487 72.0672 109.903 72.304C110.325 72.536 110.647 72.8011 110.869 73.0994C111.097 73.393 111.272 73.6345 111.395 73.8239H111.565V72.0909H113.185V83.3125C113.185 84.25 112.972 85.0123 112.545 85.5994C112.124 86.1913 111.556 86.6245 110.841 86.8991C110.131 87.1785 109.34 87.3182 108.469 87.3182ZM108.412 81.3239C109.084 81.3239 109.652 81.17 110.116 80.8622C110.58 80.5545 110.933 80.1117 111.175 79.5341C111.416 78.9564 111.537 78.2652 111.537 77.4602C111.537 76.6742 111.419 75.9806 111.182 75.3793C110.945 74.7779 110.595 74.3068 110.131 73.9659C109.667 73.625 109.094 73.4545 108.412 73.4545C107.702 73.4545 107.11 73.6345 106.636 73.9943C106.168 74.3542 105.815 74.8371 105.578 75.4432C105.346 76.0492 105.23 76.7216 105.23 77.4602C105.23 78.2178 105.348 78.8878 105.585 79.4702C105.827 80.0478 106.182 80.5024 106.651 80.8338C107.124 81.1605 107.711 81.3239 108.412 81.3239ZM119.463 83.2557C118.772 83.2557 118.144 83.1255 117.581 82.8651C117.018 82.5999 116.57 82.2188 116.239 81.7216C115.907 81.2197 115.741 80.6136 115.741 79.9034C115.741 79.2784 115.865 78.7718 116.111 78.3835C116.357 77.9905 116.686 77.6828 117.098 77.4602C117.51 77.2377 117.964 77.072 118.462 76.9631C118.964 76.8494 119.468 76.7595 119.974 76.6932C120.637 76.608 121.175 76.544 121.587 76.5014C122.003 76.4541 122.306 76.3759 122.496 76.267C122.69 76.1581 122.787 75.9687 122.787 75.6989V75.642C122.787 74.9413 122.595 74.3968 122.212 74.0085C121.833 73.6203 121.258 73.4261 120.486 73.4261C119.686 73.4261 119.058 73.6013 118.604 73.9517C118.149 74.3021 117.83 74.6761 117.645 75.0739L116.054 74.5057C116.338 73.8428 116.717 73.3267 117.19 72.9574C117.669 72.5833 118.189 72.3229 118.753 72.1761C119.321 72.0246 119.88 71.9489 120.429 71.9489C120.779 71.9489 121.182 71.9915 121.636 72.0767C122.096 72.1572 122.538 72.3253 122.964 72.581C123.395 72.8366 123.753 73.2225 124.037 73.7386C124.321 74.2547 124.463 74.946 124.463 75.8125V83H122.787V81.5227H122.702C122.588 81.7595 122.399 82.0128 122.134 82.2827C121.868 82.5526 121.516 82.7822 121.075 82.9716C120.635 83.161 120.098 83.2557 119.463 83.2557ZM119.719 81.75C120.382 81.75 120.94 81.6198 121.395 81.3594C121.854 81.099 122.2 80.7628 122.432 80.3509C122.669 79.9389 122.787 79.5057 122.787 79.0511V77.517C122.716 77.6023 122.56 77.6804 122.318 77.7514C122.081 77.8177 121.807 77.8769 121.494 77.929C121.187 77.9763 120.886 78.0189 120.592 78.0568C120.304 78.09 120.069 78.1184 119.889 78.142C119.454 78.1989 119.046 78.2912 118.668 78.419C118.294 78.5421 117.991 78.7292 117.759 78.9801C117.531 79.2263 117.418 79.5625 117.418 79.9886C117.418 80.571 117.633 81.0114 118.064 81.3097C118.5 81.6032 119.051 81.75 119.719 81.75ZM127.522 83V72.0909H129.142V73.7955H129.284C129.511 73.2131 129.878 72.7609 130.385 72.4389C130.891 72.1122 131.5 71.9489 132.21 71.9489C132.93 71.9489 133.529 72.1122 134.007 72.4389C134.49 72.7609 134.866 73.2131 135.136 73.7955H135.25C135.529 73.232 135.948 72.7846 136.507 72.4531C137.065 72.117 137.735 71.9489 138.517 71.9489C139.492 71.9489 140.29 72.2543 140.91 72.8651C141.53 73.4711 141.841 74.4157 141.841 75.6989V83H140.164V75.6989C140.164 74.8939 139.944 74.3187 139.504 73.973C139.064 73.6274 138.545 73.4545 137.949 73.4545C137.181 73.4545 136.587 73.6866 136.166 74.1506C135.744 74.6098 135.534 75.1922 135.534 75.8977V83H133.829V75.5284C133.829 74.9081 133.628 74.4086 133.225 74.0298C132.823 73.6463 132.305 73.4545 131.67 73.4545C131.234 73.4545 130.827 73.5705 130.449 73.8026C130.074 74.0346 129.771 74.3565 129.539 74.7685C129.312 75.1757 129.199 75.6468 129.199 76.1818V83H127.522ZM149.479 83.2273C148.428 83.2273 147.521 82.9953 146.759 82.5312C146.001 82.0625 145.417 81.4091 145.005 80.571C144.597 79.7282 144.394 78.7481 144.394 77.6307C144.394 76.5133 144.597 75.5284 145.005 74.6761C145.417 73.8191 145.989 73.1515 146.723 72.6733C147.462 72.1903 148.324 71.9489 149.309 71.9489C149.877 71.9489 150.438 72.0436 150.992 72.233C151.546 72.4223 152.05 72.7301 152.505 73.1562C152.959 73.5777 153.321 74.1364 153.591 74.8324C153.861 75.5284 153.996 76.3854 153.996 77.4034V78.1136H145.587V76.6648H152.292C152.292 76.0492 152.168 75.5 151.922 75.017C151.681 74.5341 151.335 74.1529 150.885 73.8736C150.44 73.5942 149.915 73.4545 149.309 73.4545C148.641 73.4545 148.063 73.6203 147.576 73.9517C147.093 74.2784 146.721 74.7045 146.461 75.2301C146.2 75.7557 146.07 76.3191 146.07 76.9205V77.8864C146.07 78.7102 146.212 79.4086 146.496 79.9815C146.785 80.5497 147.185 80.983 147.696 81.2812C148.208 81.5748 148.802 81.7216 149.479 81.7216C149.919 81.7216 150.317 81.66 150.672 81.5369C151.032 81.4091 151.342 81.2197 151.603 80.9688C151.863 80.7131 152.064 80.3958 152.206 80.017L153.826 80.4716C153.655 81.0208 153.369 81.5038 152.966 81.9205C152.564 82.3324 152.067 82.6544 151.475 82.8864C150.883 83.1136 150.218 83.2273 149.479 83.2273ZM166.603 83.2273C165.58 83.2273 164.699 82.9858 163.961 82.5028C163.222 82.0199 162.654 81.3546 162.256 80.5071C161.858 79.6596 161.659 78.6913 161.659 77.6023C161.659 76.4943 161.863 75.5166 162.27 74.669C162.682 73.8168 163.255 73.1515 163.989 72.6733C164.728 72.1903 165.589 71.9489 166.574 71.9489C167.341 71.9489 168.033 72.0909 168.648 72.375C169.264 72.6591 169.768 73.0568 170.161 73.5682C170.554 74.0795 170.798 74.6761 170.892 75.358H169.216C169.088 74.8608 168.804 74.4205 168.364 74.0369C167.928 73.6487 167.341 73.4545 166.603 73.4545C165.949 73.4545 165.376 73.625 164.884 73.9659C164.396 74.3021 164.015 74.7779 163.74 75.3935C163.471 76.0043 163.336 76.7216 163.336 77.5455C163.336 78.3883 163.468 79.1222 163.733 79.7472C164.003 80.3722 164.382 80.8575 164.87 81.2031C165.362 81.5488 165.94 81.7216 166.603 81.7216C167.038 81.7216 167.434 81.6458 167.789 81.4943C168.144 81.3428 168.444 81.125 168.691 80.8409C168.937 80.5568 169.112 80.2159 169.216 79.8182H170.892C170.798 80.4621 170.563 81.0421 170.189 81.5582C169.82 82.0696 169.33 82.4768 168.719 82.7798C168.113 83.0781 167.408 83.2273 166.603 83.2273ZM175.019 76.4375V83H173.343V68.4545H175.019V73.7955H175.161C175.417 73.232 175.8 72.7846 176.311 72.4531C176.828 72.117 177.514 71.9489 178.371 71.9489C179.114 71.9489 179.766 72.098 180.324 72.3963C180.883 72.6899 181.316 73.142 181.624 73.7528C181.936 74.3589 182.093 75.1307 182.093 76.0682V83H180.417V76.1818C180.417 75.3153 180.192 74.6454 179.742 74.1719C179.297 73.6937 178.679 73.4545 177.888 73.4545C177.339 73.4545 176.846 73.5705 176.411 73.8026C175.98 74.0346 175.639 74.3731 175.388 74.8182C175.142 75.2633 175.019 75.803 175.019 76.4375ZM188.369 83.2557C187.678 83.2557 187.051 83.1255 186.487 82.8651C185.924 82.5999 185.476 82.2188 185.145 81.7216C184.813 81.2197 184.648 80.6136 184.648 79.9034C184.648 79.2784 184.771 78.7718 185.017 78.3835C185.263 77.9905 185.592 77.6828 186.004 77.4602C186.416 77.2377 186.871 77.072 187.368 76.9631C187.87 76.8494 188.374 76.7595 188.881 76.6932C189.544 76.608 190.081 76.544 190.493 76.5014C190.91 76.4541 191.213 76.3759 191.402 76.267C191.596 76.1581 191.693 75.9687 191.693 75.6989V75.642C191.693 74.9413 191.501 74.3968 191.118 74.0085C190.739 73.6203 190.164 73.4261 189.392 73.4261C188.592 73.4261 187.964 73.6013 187.51 73.9517C187.055 74.3021 186.736 74.6761 186.551 75.0739L184.96 74.5057C185.244 73.8428 185.623 73.3267 186.097 72.9574C186.575 72.5833 187.096 72.3229 187.659 72.1761C188.227 72.0246 188.786 71.9489 189.335 71.9489C189.686 71.9489 190.088 71.9915 190.543 72.0767C191.002 72.1572 191.445 72.3253 191.871 72.581C192.302 72.8366 192.659 73.2225 192.943 73.7386C193.227 74.2547 193.369 74.946 193.369 75.8125V83H191.693V81.5227H191.608C191.494 81.7595 191.305 82.0128 191.04 82.2827C190.775 82.5526 190.422 82.7822 189.982 82.9716C189.541 83.161 189.004 83.2557 188.369 83.2557ZM188.625 81.75C189.288 81.75 189.847 81.6198 190.301 81.3594C190.76 81.099 191.106 80.7628 191.338 80.3509C191.575 79.9389 191.693 79.5057 191.693 79.0511V77.517C191.622 77.6023 191.466 77.6804 191.224 77.7514C190.988 77.8177 190.713 77.8769 190.401 77.929C190.093 77.9763 189.792 78.0189 189.499 78.0568C189.21 78.09 188.975 78.1184 188.795 78.142C188.36 78.1989 187.953 78.2912 187.574 78.419C187.2 78.5421 186.897 78.7292 186.665 78.9801C186.438 79.2263 186.324 79.5625 186.324 79.9886C186.324 80.571 186.539 81.0114 186.97 81.3097C187.406 81.6032 187.957 81.75 188.625 81.75ZM198.105 76.4375V83H196.429V72.0909H198.048V73.7955H198.19C198.446 73.2415 198.834 72.7964 199.355 72.4602C199.876 72.1193 200.548 71.9489 201.372 71.9489C202.11 71.9489 202.757 72.1004 203.311 72.4034C203.865 72.7017 204.296 73.1562 204.603 73.767C204.911 74.3731 205.065 75.1402 205.065 76.0682V83H203.389V76.1818C203.389 75.3248 203.166 74.6572 202.721 74.179C202.276 73.696 201.665 73.4545 200.889 73.4545C200.354 73.4545 199.876 73.5705 199.454 73.8026C199.038 74.0346 198.708 74.3731 198.467 74.8182C198.225 75.2633 198.105 75.803 198.105 76.4375ZM212.531 87.3182C211.722 87.3182 211.026 87.214 210.443 87.0057C209.861 86.8021 209.375 86.5322 208.987 86.196C208.604 85.8646 208.298 85.5095 208.071 85.1307L209.406 84.1932C209.558 84.392 209.75 84.6193 209.982 84.875C210.214 85.1354 210.531 85.3603 210.933 85.5497C211.34 85.7438 211.873 85.8409 212.531 85.8409C213.412 85.8409 214.139 85.6278 214.712 85.2017C215.285 84.7756 215.571 84.108 215.571 83.1989V80.983H215.429C215.306 81.1818 215.131 81.428 214.903 81.7216C214.681 82.0104 214.359 82.2685 213.938 82.4957C213.521 82.7183 212.957 82.8295 212.247 82.8295C211.366 82.8295 210.576 82.6212 209.875 82.2045C209.179 81.7879 208.627 81.1818 208.22 80.3864C207.818 79.5909 207.616 78.625 207.616 77.4886C207.616 76.3712 207.813 75.3982 208.206 74.5696C208.599 73.7363 209.146 73.0923 209.847 72.6378C210.547 72.1785 211.357 71.9489 212.276 71.9489C212.986 71.9489 213.549 72.0672 213.966 72.304C214.387 72.536 214.709 72.8011 214.932 73.0994C215.159 73.393 215.334 73.6345 215.457 73.8239H215.628V72.0909H217.247V83.3125C217.247 84.25 217.034 85.0123 216.608 85.5994C216.187 86.1913 215.618 86.6245 214.903 86.8991C214.193 87.1785 213.402 87.3182 212.531 87.3182ZM212.474 81.3239C213.147 81.3239 213.715 81.17 214.179 80.8622C214.643 80.5545 214.996 80.1117 215.237 79.5341C215.479 78.9564 215.599 78.2652 215.599 77.4602C215.599 76.6742 215.481 75.9806 215.244 75.3793C215.008 74.7779 214.657 74.3068 214.193 73.9659C213.729 73.625 213.156 73.4545 212.474 73.4545C211.764 73.4545 211.172 73.6345 210.699 73.9943C210.23 74.3542 209.877 74.8371 209.641 75.4432C209.409 76.0492 209.293 76.7216 209.293 77.4602C209.293 78.2178 209.411 78.8878 209.648 79.4702C209.889 80.0478 210.244 80.5024 210.713 80.8338C211.187 81.1605 211.774 81.3239 212.474 81.3239ZM224.889 83.2273C223.838 83.2273 222.931 82.9953 222.169 82.5312C221.411 82.0625 220.827 81.4091 220.415 80.571C220.008 79.7282 219.804 78.7481 219.804 77.6307C219.804 76.5133 220.008 75.5284 220.415 74.6761C220.827 73.8191 221.4 73.1515 222.134 72.6733C222.872 72.1903 223.734 71.9489 224.719 71.9489C225.287 71.9489 225.848 72.0436 226.402 72.233C226.956 72.4223 227.46 72.7301 227.915 73.1562C228.369 73.5777 228.732 74.1364 229.001 74.8324C229.271 75.5284 229.406 76.3854 229.406 77.4034V78.1136H220.997V76.6648H227.702C227.702 76.0492 227.579 75.5 227.332 75.017C227.091 74.5341 226.745 74.1529 226.295 73.8736C225.85 73.5942 225.325 73.4545 224.719 73.4545C224.051 73.4545 223.473 73.6203 222.986 73.9517C222.503 74.2784 222.131 74.7045 221.871 75.2301C221.61 75.7557 221.48 76.3191 221.48 76.9205V77.8864C221.48 78.7102 221.622 79.4086 221.906 79.9815C222.195 80.5497 222.595 80.983 223.107 81.2812C223.618 81.5748 224.212 81.7216 224.889 81.7216C225.33 81.7216 225.727 81.66 226.082 81.5369C226.442 81.4091 226.752 81.2197 227.013 80.9688C227.273 80.7131 227.474 80.3958 227.616 80.017L229.236 80.4716C229.065 81.0208 228.779 81.5038 228.376 81.9205C227.974 82.3324 227.477 82.6544 226.885 82.8864C226.293 83.1136 225.628 83.2273 224.889 83.2273ZM231.956 83V72.0909H233.575V73.7386H233.689C233.888 73.1989 234.248 72.7609 234.768 72.4247C235.289 72.0885 235.876 71.9205 236.53 71.9205C236.653 71.9205 236.807 71.9228 236.991 71.9276C237.176 71.9323 237.316 71.9394 237.411 71.9489V73.6534C237.354 73.6392 237.223 73.6179 237.02 73.5895C236.821 73.5563 236.61 73.5398 236.388 73.5398C235.857 73.5398 235.384 73.651 234.967 73.8736C234.555 74.0914 234.229 74.3944 233.987 74.7827C233.75 75.1662 233.632 75.6042 233.632 76.0966V83H231.956Z" fill="#828691"/>
</svg>
