<svg width="348" height="228" viewBox="0 0 348 228" fill="none" xmlns="http://www.w3.org/2000/svg">
<g clip-path="url(#clip0_235_64)">
<rect width="348" height="228" rx="25" fill="#E0EC8B"/>
<ellipse cx="271.5" cy="137.5" rx="53.5" ry="52.5" fill="#C4D861"/>
<ellipse cx="272" cy="215.5" rx="76" ry="72.5" fill="url(#paint0_linear_235_64)"/>
<ellipse cx="272" cy="41.5" rx="18" ry="17.5" fill="#C4D861"/>
<path d="M33.2642 91V76.4545H42.8949V78.9901H36.3395V82.456H42.2557V84.9915H36.3395V91H33.2642ZM44.9066 91V80.0909H47.9322V91H44.9066ZM46.4265 78.6847C45.9767 78.6847 45.5908 78.5355 45.2688 78.2372C44.9516 77.9342 44.793 77.572 44.793 77.1506C44.793 76.7339 44.9516 76.3764 45.2688 76.0781C45.5908 75.7751 45.9767 75.6236 46.4265 75.6236C46.8763 75.6236 47.2598 75.7751 47.5771 76.0781C47.899 76.3764 48.06 76.7339 48.06 77.1506C48.06 77.572 47.899 77.9342 47.5771 78.2372C47.2598 78.5355 46.8763 78.6847 46.4265 78.6847ZM53.3814 84.6932V91H50.3558V80.0909H53.2393V82.0156H53.3672C53.6087 81.3812 54.0135 80.8793 54.5817 80.5099C55.1499 80.1359 55.8388 79.9489 56.6484 79.9489C57.406 79.9489 58.0665 80.1146 58.63 80.446C59.1934 80.7775 59.6314 81.2509 59.9439 81.8665C60.2564 82.4773 60.4126 83.2064 60.4126 84.054V91H57.3871V84.5938C57.3918 83.9261 57.2214 83.4053 56.8757 83.0312C56.5301 82.6525 56.0542 82.4631 55.4482 82.4631C55.041 82.4631 54.6811 82.5507 54.3686 82.7259C54.0608 82.901 53.8194 83.1567 53.6442 83.4929C53.4737 83.8243 53.3861 84.2244 53.3814 84.6932ZM66.8171 91.1776C65.9885 91.1776 65.238 90.9645 64.5657 90.5384C63.8981 90.1075 63.3678 89.4754 62.9748 88.642C62.5865 87.804 62.3924 86.7765 62.3924 85.5597C62.3924 84.3097 62.5936 83.2704 62.9961 82.4418C63.3986 81.6084 63.9336 80.9858 64.6012 80.5739C65.2736 80.1572 66.0098 79.9489 66.81 79.9489C67.4208 79.9489 67.9298 80.053 68.337 80.2614C68.7489 80.465 69.0804 80.7206 69.3313 81.0284C69.587 81.3314 69.7811 81.6297 69.9137 81.9233H70.006V76.4545H73.0245V91H70.0415V89.2528H69.9137C69.7717 89.5559 69.5704 89.8565 69.31 90.1548C69.0543 90.4484 68.7205 90.6922 68.3086 90.8864C67.9014 91.0805 67.4042 91.1776 66.8171 91.1776ZM67.7759 88.7699C68.2636 88.7699 68.6755 88.6373 69.0117 88.3722C69.3526 88.1023 69.613 87.7259 69.793 87.2429C69.9776 86.7599 70.07 86.1941 70.07 85.5455C70.07 84.8968 69.98 84.3333 69.8001 83.8551C69.6201 83.3769 69.3597 83.0076 69.0188 82.7472C68.6779 82.4867 68.2636 82.3565 67.7759 82.3565C67.2788 82.3565 66.8597 82.4915 66.5188 82.7614C66.1779 83.0312 65.9199 83.4053 65.7447 83.8835C65.5695 84.3617 65.4819 84.9157 65.4819 85.5455C65.4819 86.1799 65.5695 86.741 65.7447 87.2287C65.9246 87.7116 66.1826 88.0904 66.5188 88.3651C66.8597 88.6349 67.2788 88.7699 67.7759 88.7699ZM85.1126 91.2131C83.9904 91.2131 83.0245 90.9858 82.2148 90.5312C81.4099 90.072 80.7897 89.4233 80.354 88.5852C79.9184 87.7424 79.7006 86.7457 79.7006 85.5952C79.7006 84.473 79.9184 83.4882 80.354 82.6406C80.7897 81.7931 81.4028 81.1326 82.1935 80.6591C82.989 80.1856 83.9218 79.9489 84.9918 79.9489C85.7115 79.9489 86.3815 80.0649 87.0018 80.2969C87.6268 80.5241 88.1713 80.8674 88.6353 81.3267C89.104 81.786 89.4686 82.3636 89.729 83.0597C89.9895 83.7509 90.1197 84.5606 90.1197 85.4886V86.3196H80.908V84.4446H87.2717C87.2717 84.009 87.177 83.6231 86.9876 83.2869C86.7982 82.9508 86.5354 82.688 86.1992 82.4986C85.8678 82.3045 85.4819 82.2074 85.0415 82.2074C84.5823 82.2074 84.1751 82.3139 83.82 82.527C83.4696 82.7353 83.195 83.017 82.9961 83.3722C82.7972 83.7225 82.6954 84.1132 82.6907 84.544V86.3267C82.6907 86.8665 82.7901 87.3329 82.989 87.7259C83.1926 88.1188 83.479 88.4219 83.8484 88.6349C84.2177 88.848 84.6557 88.9545 85.1623 88.9545C85.4985 88.9545 85.8062 88.9072 86.0856 88.8125C86.3649 88.7178 86.604 88.5758 86.8029 88.3864C87.0018 88.197 87.1533 87.965 87.2575 87.6903L90.0558 87.875C89.9137 88.5473 89.6225 89.1345 89.1822 89.6364C88.7466 90.1335 88.1831 90.5218 87.4918 90.8011C86.8053 91.0758 86.0122 91.2131 85.1126 91.2131ZM94.4272 80.0909L96.43 83.9048L98.4826 80.0909H101.586L98.4258 85.5455L101.672 91H98.582L96.43 87.2287L94.3136 91H91.1886L94.4272 85.5455L91.3022 80.0909H94.4272ZM107.922 91.2131C106.804 91.2131 105.843 90.9763 105.038 90.5028C104.238 90.0246 103.622 89.3617 103.191 88.5142C102.765 87.6667 102.552 86.6913 102.552 85.5881C102.552 84.4706 102.768 83.4905 103.199 82.6477C103.634 81.8002 104.252 81.1397 105.052 80.6662C105.852 80.188 106.804 79.9489 107.907 79.9489C108.859 79.9489 109.692 80.1217 110.407 80.4673C111.122 80.813 111.688 81.2983 112.105 81.9233C112.521 82.5483 112.751 83.2822 112.794 84.125H109.939C109.858 83.5805 109.645 83.1425 109.299 82.8111C108.958 82.4749 108.511 82.3068 107.957 82.3068C107.488 82.3068 107.079 82.4347 106.728 82.6903C106.383 82.9413 106.113 83.3082 105.919 83.7912C105.725 84.2741 105.627 84.8589 105.627 85.5455C105.627 86.2415 105.722 86.8333 105.912 87.321C106.106 87.8087 106.378 88.1804 106.728 88.4361C107.079 88.6918 107.488 88.8196 107.957 88.8196C108.303 88.8196 108.613 88.7486 108.887 88.6065C109.167 88.4645 109.396 88.2585 109.576 87.9886C109.761 87.714 109.882 87.3849 109.939 87.0014H112.794C112.746 87.8348 112.519 88.5687 112.112 89.2031C111.709 89.8329 111.153 90.3253 110.443 90.6804C109.733 91.0355 108.892 91.2131 107.922 91.2131ZM117.756 76.4545V91H114.731V76.4545H117.756ZM127.176 86.3551V80.0909H130.201V91H127.297V89.0185H127.183C126.937 89.6577 126.527 90.1714 125.954 90.5597C125.386 90.9479 124.692 91.142 123.873 91.142C123.144 91.142 122.502 90.9763 121.949 90.6449C121.395 90.3134 120.961 89.8423 120.649 89.2315C120.341 88.6207 120.185 87.8892 120.18 87.0369V80.0909H123.206V86.4972C123.21 87.1411 123.383 87.6501 123.724 88.0241C124.065 88.3982 124.522 88.5852 125.095 88.5852C125.459 88.5852 125.8 88.5024 126.118 88.3366C126.435 88.1662 126.69 87.9152 126.885 87.5838C127.083 87.2524 127.181 86.8428 127.176 86.3551ZM141.698 83.2017L138.928 83.3722C138.881 83.1354 138.779 82.9223 138.623 82.733C138.467 82.5388 138.261 82.3849 138.005 82.2713C137.754 82.1529 137.453 82.0938 137.103 82.0938C136.634 82.0938 136.239 82.1932 135.917 82.392C135.595 82.5862 135.434 82.8466 135.434 83.1733C135.434 83.4337 135.538 83.6539 135.746 83.8338C135.955 84.0137 136.312 84.1581 136.819 84.267L138.793 84.6648C139.854 84.8826 140.645 85.233 141.165 85.7159C141.686 86.1989 141.947 86.8333 141.947 87.6193C141.947 88.3343 141.736 88.9616 141.315 89.5014C140.898 90.0412 140.325 90.4626 139.596 90.7656C138.871 91.0639 138.036 91.2131 137.089 91.2131C135.645 91.2131 134.494 90.9124 133.637 90.3111C132.785 89.705 132.285 88.8812 132.138 87.8395L135.114 87.6832C135.204 88.1236 135.422 88.4598 135.768 88.6918C136.113 88.919 136.556 89.0327 137.096 89.0327C137.626 89.0327 138.052 88.9309 138.374 88.7273C138.701 88.5189 138.867 88.2514 138.871 87.9247C138.867 87.6501 138.751 87.4252 138.523 87.25C138.296 87.0701 137.946 86.9328 137.472 86.8381L135.583 86.4616C134.518 86.2486 133.725 85.8793 133.204 85.3537C132.688 84.8281 132.43 84.1581 132.43 83.3438C132.43 82.643 132.619 82.0393 132.998 81.5327C133.381 81.026 133.919 80.6354 134.61 80.3608C135.306 80.0862 136.121 79.9489 137.053 79.9489C138.431 79.9489 139.515 80.2401 140.306 80.8224C141.102 81.4048 141.566 82.1979 141.698 83.2017ZM143.852 91V80.0909H146.877V91H143.852ZM145.372 78.6847C144.922 78.6847 144.536 78.5355 144.214 78.2372C143.897 77.9342 143.738 77.572 143.738 77.1506C143.738 76.7339 143.897 76.3764 144.214 76.0781C144.536 75.7751 144.922 75.6236 145.372 75.6236C145.822 75.6236 146.205 75.7751 146.522 76.0781C146.844 76.3764 147.005 76.7339 147.005 77.1506C147.005 77.572 146.844 77.9342 146.522 78.2372C146.205 78.5355 145.822 78.6847 145.372 78.6847ZM159.472 80.0909L155.658 91H152.249L148.435 80.0909H151.631L153.896 87.8963H154.01L156.268 80.0909H159.472ZM165.64 91.2131C164.518 91.2131 163.552 90.9858 162.742 90.5312C161.937 90.072 161.317 89.4233 160.881 88.5852C160.446 87.7424 160.228 86.7457 160.228 85.5952C160.228 84.473 160.446 83.4882 160.881 82.6406C161.317 81.7931 161.93 81.1326 162.721 80.6591C163.516 80.1856 164.449 79.9489 165.519 79.9489C166.239 79.9489 166.909 80.0649 167.529 80.2969C168.154 80.5241 168.699 80.8674 169.163 81.3267C169.631 81.786 169.996 82.3636 170.256 83.0597C170.517 83.7509 170.647 84.5606 170.647 85.4886V86.3196H161.435V84.4446H167.799C167.799 84.009 167.704 83.6231 167.515 83.2869C167.326 82.9508 167.063 82.688 166.727 82.4986C166.395 82.3045 166.009 82.2074 165.569 82.2074C165.11 82.2074 164.702 82.3139 164.347 82.527C163.997 82.7353 163.722 83.017 163.523 83.3722C163.325 83.7225 163.223 84.1132 163.218 84.544V86.3267C163.218 86.8665 163.317 87.3329 163.516 87.7259C163.72 88.1188 164.006 88.4219 164.376 88.6349C164.745 88.848 165.183 88.9545 165.69 88.9545C166.026 88.9545 166.334 88.9072 166.613 88.8125C166.892 88.7178 167.131 88.5758 167.33 88.3864C167.529 88.197 167.681 87.965 167.785 87.6903L170.583 87.875C170.441 88.5473 170.15 89.1345 169.71 89.6364C169.274 90.1335 168.71 90.5218 168.019 90.8011C167.333 91.0758 166.54 91.2131 165.64 91.2131ZM37.2273 115.178C36.3987 115.178 35.6482 114.964 34.9759 114.538C34.3082 114.107 33.7779 113.475 33.3849 112.642C32.9967 111.804 32.8026 110.777 32.8026 109.56C32.8026 108.31 33.0038 107.27 33.4062 106.442C33.8087 105.608 34.3438 104.986 35.0114 104.574C35.6837 104.157 36.42 103.949 37.2202 103.949C37.831 103.949 38.34 104.053 38.7472 104.261C39.1591 104.465 39.4905 104.721 39.7415 105.028C39.9972 105.331 40.1913 105.63 40.3239 105.923H40.4162V100.455H43.4347V115H40.4517V113.253H40.3239C40.1818 113.556 39.9806 113.857 39.7202 114.155C39.4645 114.448 39.1307 114.692 38.7188 114.886C38.3116 115.08 37.8144 115.178 37.2273 115.178ZM38.1861 112.77C38.6738 112.77 39.0857 112.637 39.4219 112.372C39.7628 112.102 40.0232 111.726 40.2031 111.243C40.3878 110.76 40.4801 110.194 40.4801 109.545C40.4801 108.897 40.3902 108.333 40.2102 107.855C40.0303 107.377 39.7699 107.008 39.429 106.747C39.0881 106.487 38.6738 106.357 38.1861 106.357C37.6889 106.357 37.2699 106.491 36.929 106.761C36.5881 107.031 36.33 107.405 36.1548 107.884C35.9796 108.362 35.892 108.916 35.892 109.545C35.892 110.18 35.9796 110.741 36.1548 111.229C36.3348 111.712 36.5928 112.09 36.929 112.365C37.2699 112.635 37.6889 112.77 38.1861 112.77ZM50.8938 115.213C49.7717 115.213 48.8058 114.986 47.9961 114.531C47.1912 114.072 46.5709 113.423 46.1353 112.585C45.6997 111.742 45.4819 110.746 45.4819 109.595C45.4819 108.473 45.6997 107.488 46.1353 106.641C46.5709 105.793 47.1841 105.133 47.9748 104.659C48.7702 104.186 49.703 103.949 50.7731 103.949C51.4928 103.949 52.1628 104.065 52.783 104.297C53.408 104.524 53.9525 104.867 54.4165 105.327C54.8853 105.786 55.2499 106.364 55.5103 107.06C55.7707 107.751 55.9009 108.561 55.9009 109.489V110.32H46.6893V108.445H53.0529C53.0529 108.009 52.9582 107.623 52.7688 107.287C52.5794 106.951 52.3166 106.688 51.9805 106.499C51.649 106.304 51.2631 106.207 50.8228 106.207C50.3635 106.207 49.9563 106.314 49.6012 106.527C49.2508 106.735 48.9762 107.017 48.7773 107.372C48.5785 107.723 48.4767 108.113 48.4719 108.544V110.327C48.4719 110.866 48.5714 111.333 48.7702 111.726C48.9738 112.119 49.2603 112.422 49.6296 112.635C49.9989 112.848 50.4369 112.955 50.9435 112.955C51.2797 112.955 51.5875 112.907 51.8668 112.812C52.1462 112.718 52.3853 112.576 52.5842 112.386C52.783 112.197 52.9345 111.965 53.0387 111.69L55.837 111.875C55.695 112.547 55.4038 113.134 54.9634 113.636C54.5278 114.134 53.9644 114.522 53.2731 114.801C52.5865 115.076 51.7934 115.213 50.8938 115.213ZM60.9862 115.206C60.2901 115.206 59.6699 115.085 59.1254 114.844C58.5808 114.598 58.15 114.235 57.8327 113.757C57.5202 113.274 57.364 112.673 57.364 111.953C57.364 111.347 57.4753 110.838 57.6978 110.426C57.9203 110.014 58.2234 109.683 58.6069 109.432C58.9904 109.181 59.426 108.991 59.9137 108.864C60.4061 108.736 60.9222 108.646 61.462 108.594C62.0965 108.527 62.6078 108.466 62.9961 108.409C63.3844 108.348 63.6661 108.258 63.8413 108.139C64.0165 108.021 64.104 107.846 64.104 107.614V107.571C64.104 107.121 63.962 106.773 63.6779 106.527C63.3986 106.281 63.0008 106.158 62.4847 106.158C61.9402 106.158 61.507 106.278 61.185 106.52C60.863 106.757 60.65 107.055 60.5458 107.415L57.7475 107.188C57.8896 106.525 58.1689 105.952 58.5856 105.469C59.0022 104.981 59.5397 104.607 60.1978 104.347C60.8607 104.081 61.6277 103.949 62.4989 103.949C63.105 103.949 63.685 104.02 64.239 104.162C64.7977 104.304 65.2925 104.524 65.7234 104.822C66.159 105.121 66.5022 105.504 66.7532 105.973C67.0041 106.437 67.1296 106.993 67.1296 107.642V115H64.2603V113.487H64.1751C63.9999 113.828 63.7655 114.129 63.4719 114.389C63.1784 114.645 62.8256 114.846 62.4137 114.993C62.0018 115.135 61.5259 115.206 60.9862 115.206ZM61.8526 113.118C62.2977 113.118 62.6907 113.03 63.0316 112.855C63.3725 112.675 63.64 112.434 63.8342 112.131C64.0283 111.828 64.1254 111.484 64.1254 111.101V109.943C64.0307 110.005 63.9005 110.062 63.7347 110.114C63.5737 110.161 63.3915 110.206 63.1879 110.249C62.9843 110.286 62.7807 110.322 62.5771 110.355C62.3735 110.384 62.1888 110.41 62.0231 110.433C61.668 110.485 61.3578 110.568 61.0927 110.682C60.8275 110.795 60.6216 110.949 60.4748 111.143C60.328 111.333 60.2546 111.57 60.2546 111.854C60.2546 112.266 60.4038 112.58 60.7021 112.798C61.0051 113.011 61.3886 113.118 61.8526 113.118ZM72.5025 100.455V115H69.4769V100.455H72.5025ZM84.0028 107.202L81.233 107.372C81.1856 107.135 81.0838 106.922 80.9276 106.733C80.7713 106.539 80.5653 106.385 80.3097 106.271C80.0587 106.153 79.758 106.094 79.4077 106.094C78.9389 106.094 78.5436 106.193 78.2216 106.392C77.8996 106.586 77.7386 106.847 77.7386 107.173C77.7386 107.434 77.8428 107.654 78.0511 107.834C78.2595 108.014 78.617 108.158 79.1236 108.267L81.098 108.665C82.1586 108.883 82.9493 109.233 83.4702 109.716C83.991 110.199 84.2514 110.833 84.2514 111.619C84.2514 112.334 84.0407 112.962 83.6193 113.501C83.2027 114.041 82.6297 114.463 81.9006 114.766C81.1761 115.064 80.3404 115.213 79.3935 115.213C77.9493 115.213 76.7988 114.912 75.9418 114.311C75.0895 113.705 74.59 112.881 74.4432 111.839L77.419 111.683C77.509 112.124 77.7268 112.46 78.0724 112.692C78.4181 112.919 78.8608 113.033 79.4006 113.033C79.9309 113.033 80.357 112.931 80.679 112.727C81.0057 112.519 81.1714 112.251 81.1761 111.925C81.1714 111.65 81.0554 111.425 80.8281 111.25C80.6009 111.07 80.2505 110.933 79.777 110.838L77.8878 110.462C76.8224 110.249 76.0294 109.879 75.5085 109.354C74.9924 108.828 74.7344 108.158 74.7344 107.344C74.7344 106.643 74.9238 106.039 75.3026 105.533C75.6861 105.026 76.2235 104.635 76.9148 104.361C77.6108 104.086 78.4252 103.949 79.358 103.949C80.7358 103.949 81.8201 104.24 82.6108 104.822C83.4063 105.405 83.8703 106.198 84.0028 107.202ZM96.652 104.091V106.364H89.919V104.091H96.652ZM91.4602 115V103.303C91.4602 102.512 91.6141 101.856 91.9219 101.335C92.2344 100.814 92.6605 100.424 93.2003 100.163C93.7401 99.9029 94.3532 99.7727 95.0398 99.7727C95.5038 99.7727 95.9276 99.8082 96.3111 99.8793C96.6993 99.9503 96.9882 100.014 97.1776 100.071L96.6378 102.344C96.5194 102.306 96.3726 102.27 96.1974 102.237C96.027 102.204 95.8518 102.188 95.6719 102.188C95.2268 102.188 94.9167 102.292 94.7415 102.5C94.5663 102.704 94.4787 102.99 94.4787 103.359V115H91.4602ZM103.039 115.213C101.935 115.213 100.981 114.979 100.176 114.51C99.3763 114.036 98.7584 113.378 98.3228 112.536C97.8872 111.688 97.6694 110.705 97.6694 109.588C97.6694 108.461 97.8872 107.476 98.3228 106.634C98.7584 105.786 99.3763 105.128 100.176 104.659C100.981 104.186 101.935 103.949 103.039 103.949C104.142 103.949 105.094 104.186 105.894 104.659C106.699 105.128 107.319 105.786 107.755 106.634C108.19 107.476 108.408 108.461 108.408 109.588C108.408 110.705 108.19 111.688 107.755 112.536C107.319 113.378 106.699 114.036 105.894 114.51C105.094 114.979 104.142 115.213 103.039 115.213ZM103.053 112.869C103.555 112.869 103.974 112.727 104.31 112.443C104.646 112.154 104.9 111.761 105.07 111.264C105.245 110.767 105.333 110.201 105.333 109.567C105.333 108.932 105.245 108.366 105.07 107.869C104.9 107.372 104.646 106.979 104.31 106.69C103.974 106.402 103.555 106.257 103.053 106.257C102.546 106.257 102.12 106.402 101.775 106.69C101.434 106.979 101.176 107.372 101 107.869C100.83 108.366 100.745 108.932 100.745 109.567C100.745 110.201 100.83 110.767 101 111.264C101.176 111.761 101.434 112.154 101.775 112.443C102.12 112.727 102.546 112.869 103.053 112.869ZM110.375 115V104.091H113.309V105.994H113.422C113.621 105.317 113.955 104.806 114.424 104.46C114.892 104.11 115.432 103.935 116.043 103.935C116.194 103.935 116.358 103.944 116.533 103.963C116.708 103.982 116.862 104.008 116.995 104.041V106.726C116.853 106.683 116.656 106.645 116.405 106.612C116.154 106.579 115.925 106.562 115.716 106.562C115.271 106.562 114.873 106.66 114.523 106.854C114.177 107.043 113.903 107.308 113.699 107.649C113.5 107.99 113.401 108.383 113.401 108.828V115H110.375ZM128.99 104.091V106.364H122.421V104.091H128.99ZM123.912 101.477H126.938V111.648C126.938 111.927 126.98 112.145 127.066 112.301C127.151 112.453 127.269 112.559 127.421 112.621C127.577 112.682 127.757 112.713 127.961 112.713C128.103 112.713 128.245 112.701 128.387 112.678C128.529 112.649 128.638 112.628 128.713 112.614L129.189 114.865C129.038 114.912 128.825 114.967 128.55 115.028C128.275 115.095 127.942 115.135 127.549 115.149C126.819 115.178 126.18 115.08 125.631 114.858C125.087 114.635 124.663 114.29 124.36 113.821C124.057 113.352 123.908 112.76 123.912 112.045V101.477ZM135.816 115.213C134.694 115.213 133.728 114.986 132.918 114.531C132.113 114.072 131.493 113.423 131.057 112.585C130.622 111.742 130.404 110.746 130.404 109.595C130.404 108.473 130.622 107.488 131.057 106.641C131.493 105.793 132.106 105.133 132.897 104.659C133.692 104.186 134.625 103.949 135.695 103.949C136.415 103.949 137.085 104.065 137.705 104.297C138.33 104.524 138.874 104.867 139.338 105.327C139.807 105.786 140.172 106.364 140.432 107.06C140.693 107.751 140.823 108.561 140.823 109.489V110.32H131.611V108.445H137.975C137.975 108.009 137.88 107.623 137.691 107.287C137.501 106.951 137.239 106.688 136.902 106.499C136.571 106.304 136.185 106.207 135.745 106.207C135.285 106.207 134.878 106.314 134.523 106.527C134.173 106.735 133.898 107.017 133.699 107.372C133.5 107.723 133.399 108.113 133.394 108.544V110.327C133.394 110.866 133.493 111.333 133.692 111.726C133.896 112.119 134.182 112.422 134.551 112.635C134.921 112.848 135.359 112.955 135.865 112.955C136.202 112.955 136.509 112.907 136.789 112.812C137.068 112.718 137.307 112.576 137.506 112.386C137.705 112.197 137.856 111.965 137.961 111.69L140.759 111.875C140.617 112.547 140.326 113.134 139.885 113.636C139.45 114.134 138.886 114.522 138.195 114.801C137.508 115.076 136.715 115.213 135.816 115.213ZM145.823 108.693V115H142.797V104.091H145.681V106.016H145.809C146.05 105.381 146.455 104.879 147.023 104.51C147.591 104.136 148.28 103.949 149.09 103.949C149.847 103.949 150.508 104.115 151.071 104.446C151.635 104.777 152.073 105.251 152.385 105.866C152.698 106.477 152.854 107.206 152.854 108.054V115H149.828V108.594C149.833 107.926 149.663 107.405 149.317 107.031C148.971 106.652 148.496 106.463 147.89 106.463C147.482 106.463 147.123 106.551 146.81 106.726C146.502 106.901 146.261 107.157 146.086 107.493C145.915 107.824 145.828 108.224 145.823 108.693ZM158.264 108.693V115H155.239V104.091H158.122V106.016H158.25C158.491 105.381 158.896 104.879 159.464 104.51C160.033 104.136 160.722 103.949 161.531 103.949C162.289 103.949 162.949 104.115 163.513 104.446C164.076 104.777 164.514 105.251 164.827 105.866C165.139 106.477 165.295 107.206 165.295 108.054V115H162.27V108.594C162.275 107.926 162.104 107.405 161.759 107.031C161.413 106.652 160.937 106.463 160.331 106.463C159.924 106.463 159.564 106.551 159.251 106.726C158.944 106.901 158.702 107.157 158.527 107.493C158.357 107.824 158.269 108.224 158.264 108.693ZM167.68 115V104.091H170.706V115H167.68ZM169.2 102.685C168.75 102.685 168.364 102.536 168.042 102.237C167.725 101.934 167.566 101.572 167.566 101.151C167.566 100.734 167.725 100.376 168.042 100.078C168.364 99.7751 168.75 99.6236 169.2 99.6236C169.65 99.6236 170.033 99.7751 170.35 100.078C170.672 100.376 170.833 100.734 170.833 101.151C170.833 101.572 170.672 101.934 170.35 102.237C170.033 102.536 169.65 102.685 169.2 102.685ZM182.206 107.202L179.436 107.372C179.389 107.135 179.287 106.922 179.131 106.733C178.974 106.539 178.768 106.385 178.513 106.271C178.262 106.153 177.961 106.094 177.611 106.094C177.142 106.094 176.747 106.193 176.425 106.392C176.103 106.586 175.942 106.847 175.942 107.173C175.942 107.434 176.046 107.654 176.254 107.834C176.463 108.014 176.82 108.158 177.327 108.267L179.301 108.665C180.362 108.883 181.152 109.233 181.673 109.716C182.194 110.199 182.455 110.833 182.455 111.619C182.455 112.334 182.244 112.962 181.822 113.501C181.406 114.041 180.833 114.463 180.104 114.766C179.379 115.064 178.544 115.213 177.597 115.213C176.152 115.213 175.002 114.912 174.145 114.311C173.293 113.705 172.793 112.881 172.646 111.839L175.622 111.683C175.712 112.124 175.93 112.46 176.276 112.692C176.621 112.919 177.064 113.033 177.604 113.033C178.134 113.033 178.56 112.931 178.882 112.727C179.209 112.519 179.375 112.251 179.379 111.925C179.375 111.65 179.259 111.425 179.031 111.25C178.804 111.07 178.454 110.933 177.98 110.838L176.091 110.462C175.026 110.249 174.232 109.879 173.712 109.354C173.196 108.828 172.938 108.158 172.938 107.344C172.938 106.643 173.127 106.039 173.506 105.533C173.889 105.026 174.427 104.635 175.118 104.361C175.814 104.086 176.628 103.949 177.561 103.949C178.939 103.949 180.023 104.24 180.814 104.822C181.609 105.405 182.073 106.198 182.206 107.202ZM38.1222 143.318C37.142 143.318 36.3016 143.183 35.6009 142.913C34.9048 142.648 34.3509 142.286 33.9389 141.827C33.527 141.367 33.2595 140.851 33.1364 140.278L35.9347 139.902C36.0199 140.12 36.1548 140.323 36.3395 140.513C36.5241 140.702 36.768 140.854 37.071 140.967C37.3788 141.086 37.7528 141.145 38.1932 141.145C38.8513 141.145 39.3935 140.984 39.8196 140.662C40.2505 140.345 40.4659 139.812 40.4659 139.064V137.068H40.3381C40.2055 137.371 40.0066 137.658 39.7415 137.928C39.4763 138.197 39.1354 138.418 38.7188 138.588C38.3021 138.759 37.8049 138.844 37.2273 138.844C36.4081 138.844 35.6624 138.654 34.9901 138.276C34.3224 137.892 33.7898 137.307 33.392 136.521C32.9991 135.731 32.8026 134.732 32.8026 133.524C32.8026 132.288 33.0038 131.256 33.4062 130.428C33.8087 129.599 34.3438 128.979 35.0114 128.567C35.6837 128.155 36.42 127.949 37.2202 127.949C37.831 127.949 38.3423 128.053 38.7543 128.261C39.1662 128.465 39.4976 128.721 39.7486 129.028C40.0043 129.331 40.2008 129.63 40.3381 129.923H40.4517V128.091H43.456V139.107C43.456 140.035 43.2287 140.811 42.7741 141.436C42.3196 142.061 41.6899 142.53 40.8849 142.842C40.0848 143.16 39.1638 143.318 38.1222 143.318ZM38.1861 136.571C38.6738 136.571 39.0857 136.45 39.4219 136.209C39.7628 135.963 40.0232 135.612 40.2031 135.158C40.3878 134.698 40.4801 134.149 40.4801 133.51C40.4801 132.871 40.3902 132.317 40.2102 131.848C40.0303 131.375 39.7699 131.008 39.429 130.747C39.0881 130.487 38.6738 130.357 38.1861 130.357C37.6889 130.357 37.2699 130.491 36.929 130.761C36.5881 131.027 36.33 131.396 36.1548 131.869C35.9796 132.343 35.892 132.89 35.892 133.51C35.892 134.14 35.9796 134.684 36.1548 135.143C36.3348 135.598 36.5928 135.951 36.929 136.202C37.2699 136.448 37.6889 136.571 38.1861 136.571ZM50.8352 139.213C49.7131 139.213 48.7472 138.986 47.9375 138.531C47.1326 138.072 46.5123 137.423 46.0767 136.585C45.6411 135.742 45.4233 134.746 45.4233 133.595C45.4233 132.473 45.6411 131.488 46.0767 130.641C46.5123 129.793 47.1255 129.133 47.9162 128.659C48.7116 128.186 49.6444 127.949 50.7145 127.949C51.4342 127.949 52.1042 128.065 52.7244 128.297C53.3494 128.524 53.8939 128.867 54.358 129.327C54.8267 129.786 55.1913 130.364 55.4517 131.06C55.7121 131.751 55.8423 132.561 55.8423 133.489V134.32H46.6307V132.445H52.9943C52.9943 132.009 52.8996 131.623 52.7102 131.287C52.5208 130.951 52.258 130.688 51.9219 130.499C51.5904 130.304 51.2045 130.207 50.7642 130.207C50.3049 130.207 49.8977 130.314 49.5426 130.527C49.1922 130.735 48.9176 131.017 48.7188 131.372C48.5199 131.723 48.4181 132.113 48.4134 132.544V134.327C48.4134 134.866 48.5128 135.333 48.7116 135.726C48.9152 136.119 49.2017 136.422 49.571 136.635C49.9403 136.848 50.3783 136.955 50.8849 136.955C51.2211 136.955 51.5289 136.907 51.8082 136.812C52.0876 136.718 52.3267 136.576 52.5256 136.386C52.7244 136.197 52.8759 135.965 52.9801 135.69L55.7784 135.875C55.6364 136.547 55.3452 137.134 54.9048 137.636C54.4692 138.134 53.9058 138.522 53.2145 138.801C52.5279 139.076 51.7348 139.213 50.8352 139.213ZM60.9276 139.206C60.2315 139.206 59.6113 139.085 59.0668 138.844C58.5223 138.598 58.0914 138.235 57.7741 137.757C57.4616 137.274 57.3054 136.673 57.3054 135.953C57.3054 135.347 57.4167 134.838 57.6392 134.426C57.8617 134.014 58.1648 133.683 58.5483 133.432C58.9318 133.181 59.3674 132.991 59.8551 132.864C60.3475 132.736 60.8636 132.646 61.4034 132.594C62.0379 132.527 62.5492 132.466 62.9375 132.409C63.3258 132.348 63.6075 132.258 63.7827 132.139C63.9579 132.021 64.0455 131.846 64.0455 131.614V131.571C64.0455 131.121 63.9034 130.773 63.6193 130.527C63.34 130.281 62.9422 130.158 62.4261 130.158C61.8816 130.158 61.4484 130.278 61.1264 130.52C60.8045 130.757 60.5914 131.055 60.4872 131.415L57.6889 131.188C57.831 130.525 58.1103 129.952 58.527 129.469C58.9437 128.981 59.4811 128.607 60.1392 128.347C60.8021 128.081 61.5691 127.949 62.4403 127.949C63.0464 127.949 63.6264 128.02 64.1804 128.162C64.7391 128.304 65.2339 128.524 65.6648 128.822C66.1004 129.121 66.4437 129.504 66.6946 129.973C66.9455 130.437 67.071 130.993 67.071 131.642V139H64.2017V137.487H64.1165C63.9413 137.828 63.7069 138.129 63.4134 138.389C63.1198 138.645 62.767 138.846 62.3551 138.993C61.9432 139.135 61.4673 139.206 60.9276 139.206ZM61.794 137.118C62.2391 137.118 62.6321 137.03 62.973 136.855C63.3139 136.675 63.5814 136.434 63.7756 136.131C63.9697 135.828 64.0668 135.484 64.0668 135.101V133.943C63.9721 134.005 63.8419 134.062 63.6761 134.114C63.5152 134.161 63.3329 134.206 63.1293 134.249C62.9257 134.286 62.7221 134.322 62.5185 134.355C62.3149 134.384 62.1302 134.41 61.9645 134.433C61.6094 134.485 61.2992 134.568 61.0341 134.682C60.7689 134.795 60.563 134.949 60.4162 135.143C60.2694 135.333 60.196 135.57 60.196 135.854C60.196 136.266 60.3452 136.58 60.6435 136.798C60.9465 137.011 61.33 137.118 61.794 137.118ZM69.4183 139V128.091H72.3516V129.994H72.4652C72.6641 129.317 72.9979 128.806 73.4666 128.46C73.9354 128.11 74.4751 127.935 75.0859 127.935C75.2375 127.935 75.4008 127.944 75.576 127.963C75.7512 127.982 75.9051 128.008 76.0376 128.041V130.726C75.8956 130.683 75.6991 130.645 75.4482 130.612C75.1972 130.579 74.9676 130.562 74.7592 130.562C74.3142 130.562 73.9164 130.66 73.5661 130.854C73.2204 131.043 72.9458 131.308 72.7422 131.649C72.5433 131.99 72.4439 132.383 72.4439 132.828V139H69.4183Z" fill="#698C14"/>
</g>
<defs>
<linearGradient id="paint0_linear_235_64" x1="272" y1="143" x2="272" y2="288" gradientUnits="userSpaceOnUse">
<stop stop-color="#C4D861"/>
<stop offset="1" stop-color="#629F00"/>
</linearGradient>
<clipPath id="clip0_235_64">
<rect width="348" height="228" fill="white"/>
</clipPath>
</defs>
</svg>
